# MagicaVoxel @ Ephtracy

# group
o 

# material
mtllib SubstationThing-1.mtl
usemtl palette

# normals
vn -1 0 0
vn 1 0 0
vn 0 0 1
vn 0 0 -1
vn 0 -1 0
vn 0 1 0

# texcoords
vt 0.314453 0.5
vt 0.318359 0.5
vt 0.322266 0.5
vt 0.326172 0.5
vt 0.330078 0.5
vt 0.501953 0.5

# verts
v -0.6 0 0.4
v -0.6 0 0.2
v -0.6 0 0.1
v -0.6 0 -0.2
v -0.6 0 -0.3
v -0.6 0 -0.4
v -0.6 0.1 0.4
v -0.6 0.1 0.3
v -0.6 0.1 0.1
v -0.6 0.1 0
v -0.6 0.1 -0.1
v -0.6 0.1 -0.2
v -0.6 0.1 -0.3
v -0.6 0.1 -0.4
v -0.6 0.2 0.3
v -0.6 0.2 0.2
v -0.6 0.2 0
v -0.6 0.2 -0.1
v -0.6 0.2 -0.2
v -0.6 0.2 -0.3
v -0.5 0.1 0.4
v -0.5 0.1 0.3
v -0.5 0.1 -0.3
v -0.5 0.1 -0.4
v -0.5 0.2 0.4
v -0.5 0.2 0.3
v -0.5 0.2 0.2
v -0.5 0.2 0
v -0.5 0.2 -0.1
v -0.5 0.2 -0.2
v -0.5 0.2 -0.3
v -0.5 0.2 -0.4
v -0.5 0.4 0.3
v -0.5 0.4 -0.3
v 0.3 0.1 0.4
v 0.3 0.1 0.3
v 0.3 0.2 0.4
v 0.3 0.2 0.3
v 0.4 0.1 -0.3
v 0.4 0.1 -0.4
v 0.4 0.2 0.3
v 0.4 0.2 0.2
v 0.4 0.2 0.1
v 0.4 0.2 0
v 0.4 0.2 -0.2
v 0.4 0.2 -0.3
v 0.4 0.2 -0.4
v 0.4 0.4 0.3
v 0.4 0.4 -0.3
v 0.5 0 0.4
v 0.5 0 0.3
v 0.5 0 0.1
v 0.5 0 -0.1
v 0.5 0 -0.3
v 0.5 0 -0.4
v 0.5 0.1 0.4
v 0.5 0.1 0.3
v 0.5 0.1 0.2
v 0.5 0.1 0
v 0.5 0.1 -0.1
v 0.5 0.1 -0.2
v 0.5 0.1 -0.3
v 0.5 0.1 -0.4
v 0.5 0.2 0.3
v 0.5 0.2 0.2
v 0.5 0.2 0.1
v 0.5 0.2 0
v 0.5 0.2 -0.2
v 0.5 0.2 -0.3
v -0.6 0 0.4
v -0.6 0.1 0.4
v -0.5 0 0.4
v -0.5 0.1 0.4
v -0.5 0.2 0.4
v -0.4 0 0.4
v -0.4 0.1 0.4
v -0.4 0.2 0.4
v -0.3 0.1 0.4
v -0.3 0.2 0.4
v -0.1 0.1 0.4
v -0.1 0.2 0.4
v 0.1 0 0.4
v 0.1 0.1 0.4
v 0.2 0.1 0.4
v 0.2 0.2 0.4
v 0.3 0.1 0.4
v 0.3 0.2 0.4
v 0.4 0 0.4
v 0.4 0.1 0.4
v 0.5 0 0.4
v 0.5 0.1 0.4
v -0.6 0.1 0.3
v -0.6 0.2 0.3
v -0.5 0.1 0.3
v -0.5 0.2 0.3
v -0.5 0.4 0.3
v -0.4 0.2 0.3
v -0.3 0.2 0.3
v -0.1 0.2 0.3
v 0.2 0.2 0.3
v 0.3 0.1 0.3
v 0.3 0.2 0.3
v 0.4 0.1 0.3
v 0.4 0.2 0.3
v 0.4 0.4 0.3
v 0.5 0.1 0.3
v 0.5 0.2 0.3
v -0.6 0.1 -0.3
v -0.6 0.2 -0.3
v -0.5 0.1 -0.3
v -0.5 0.2 -0.3
v -0.5 0.4 -0.3
v -0.4 0.2 -0.3
v -0.3 0.2 -0.3
v -0.2 0.2 -0.3
v -0.1 0.2 -0.3
v 0.3 0.2 -0.3
v 0.4 0.1 -0.3
v 0.4 0.2 -0.3
v 0.4 0.4 -0.3
v 0.5 0.1 -0.3
v 0.5 0.2 -0.3
v -0.6 0 -0.4
v -0.6 0.1 -0.4
v -0.5 0 -0.4
v -0.5 0.1 -0.4
v -0.5 0.2 -0.4
v -0.4 0.1 -0.4
v -0.4 0.2 -0.4
v -0.3 0 -0.4
v -0.3 0.1 -0.4
v -0.3 0.2 -0.4
v -0.2 0.1 -0.4
v -0.2 0.2 -0.4
v -0.1 0.1 -0.4
v -0.1 0.2 -0.4
v 0.3 0 -0.4
v 0.3 0.1 -0.4
v 0.3 0.2 -0.4
v 0.4 0 -0.4
v 0.4 0.1 -0.4
v 0.4 0.2 -0.4
v 0.5 0 -0.4
v 0.5 0.1 -0.4
v -0.6 0 0.4
v -0.5 0 0.4
v -0.4 0 0.4
v 0.1 0 0.4
v 0.4 0 0.4
v 0.5 0 0.4
v -0.5 0 0.3
v -0.4 0 0.3
v -0.3 0 0.3
v 0.1 0 0.3
v 0.4 0 0.3
v 0.5 0 0.3
v -0.6 0 0.2
v -0.5 0 0.2
v -0.4 0 0.2
v -0.3 0 0.2
v -0.2 0 0.2
v -5.96046e-08 0 0.2
v 0.1 0 0.2
v 0.2 0 0.2
v -0.6 0 0.1
v -0.5 0 0.1
v -0.3 0 0.1
v -0.2 0 0.1
v -5.96046e-08 0 0.1
v 0.1 0 0.1
v 0.2 0 0.1
v 0.3 0 0.1
v 0.4 0 0.1
v 0.5 0 0.1
v -0.5 0 0
v -0.4 0 0
v -0.3 0 0
v -0.2 0 0
v 0.1 0 0
v 0.2 0 0
v -5.96046e-08 0 -0.1
v 0.2 0 -0.1
v 0.4 0 -0.1
v 0.5 0 -0.1
v -0.6 0 -0.2
v -0.5 0 -0.2
v -0.3 0 -0.2
v -0.2 0 -0.2
v -5.96046e-08 0 -0.2
v 0.2 0 -0.2
v 0.3 0 -0.2
v -0.6 0 -0.3
v -0.5 0 -0.3
v -0.3 0 -0.3
v 0.2 0 -0.3
v 0.3 0 -0.3
v 0.4 0 -0.3
v 0.5 0 -0.3
v -0.6 0 -0.4
v -0.5 0 -0.4
v -0.3 0 -0.4
v 0.3 0 -0.4
v 0.4 0 -0.4
v 0.5 0 -0.4
v -0.6 0.1 0.4
v -0.5 0.1 0.4
v 0.3 0.1 0.4
v 0.4 0.1 0.4
v 0.5 0.1 0.4
v -0.6 0.1 0.3
v -0.5 0.1 0.3
v 0.3 0.1 0.3
v 0.4 0.1 0.3
v 0.5 0.1 0.3
v -0.6 0.1 -0.3
v -0.5 0.1 -0.3
v 0.4 0.1 -0.3
v 0.5 0.1 -0.3
v -0.6 0.1 -0.4
v -0.5 0.1 -0.4
v 0.4 0.1 -0.4
v 0.5 0.1 -0.4
v -0.5 0.2 0.4
v -0.4 0.2 0.4
v -0.3 0.2 0.4
v -0.1 0.2 0.4
v 0.2 0.2 0.4
v 0.3 0.2 0.4
v -0.6 0.2 0.3
v -0.5 0.2 0.3
v -0.4 0.2 0.3
v -0.3 0.2 0.3
v -0.1 0.2 0.3
v 0.2 0.2 0.3
v 0.3 0.2 0.3
v 0.4 0.2 0.3
v 0.5 0.2 0.3
v -0.6 0.2 0.2
v -0.5 0.2 0.2
v 0.4 0.2 0.2
v 0.5 0.2 0.2
v 0.4 0.2 0.1
v 0.5 0.2 0.1
v -0.6 0.2 0
v -0.5 0.2 0
v 0.4 0.2 0
v 0.5 0.2 0
v -0.6 0.2 -0.1
v -0.5 0.2 -0.1
v -0.6 0.2 -0.2
v -0.5 0.2 -0.2
v 0.4 0.2 -0.2
v 0.5 0.2 -0.2
v -0.6 0.2 -0.3
v -0.5 0.2 -0.3
v -0.4 0.2 -0.3
v -0.3 0.2 -0.3
v -0.2 0.2 -0.3
v -0.1 0.2 -0.3
v 0.3 0.2 -0.3
v 0.4 0.2 -0.3
v 0.5 0.2 -0.3
v -0.5 0.2 -0.4
v -0.4 0.2 -0.4
v -0.3 0.2 -0.4
v -0.2 0.2 -0.4
v -0.1 0.2 -0.4
v 0.3 0.2 -0.4
v 0.4 0.2 -0.4
v -0.5 0.4 0.3
v 0.4 0.4 0.3
v -0.5 0.4 -0.3
v 0.4 0.4 -0.3

# faces
f 7/1/1 2/1/1 1/1/1
f 8/1/1 2/1/1 7/1/1
f 9/2/1 3/2/1 2/2/1
f 9/3/1 4/3/1 3/3/1
f 10/3/1 4/3/1 9/3/1
f 11/3/1 4/3/1 10/3/1
f 12/2/1 5/2/1 4/2/1
f 12/3/1 4/3/1 11/3/1
f 13/1/1 6/1/1 5/1/1
f 13/2/1 5/2/1 12/2/1
f 14/1/1 6/1/1 13/1/1
f 15/1/1 2/1/1 8/1/1
f 16/2/1 9/2/1 2/2/1
f 16/1/1 2/1/1 15/1/1
f 16/2/1 10/2/1 9/2/1
f 17/3/1 11/3/1 10/3/1
f 17/2/1 10/2/1 16/2/1
f 18/2/1 12/2/1 11/2/1
f 18/3/1 11/3/1 17/3/1
f 19/1/1 13/1/1 12/1/1
f 19/2/1 12/2/1 18/2/1
f 20/1/1 13/1/1 19/1/1
f 25/1/1 22/1/1 21/1/1
f 26/1/1 22/1/1 25/1/1
f 31/1/1 24/1/1 23/1/1
f 32/1/1 24/1/1 31/1/1
f 33/6/1 30/6/1 29/6/1
f 33/6/1 31/6/1 30/6/1
f 33/6/1 27/6/1 26/6/1
f 33/6/1 29/6/1 28/6/1
f 33/6/1 28/6/1 27/6/1
f 34/6/1 31/6/1 33/6/1
f 35/1/2 36/1/2 37/1/2
f 37/1/2 36/1/2 38/1/2
f 39/1/2 40/1/2 46/1/2
f 46/1/2 40/1/2 47/1/2
f 44/6/2 45/6/2 48/6/2
f 41/6/2 42/6/2 48/6/2
f 45/6/2 46/6/2 48/6/2
f 42/6/2 43/6/2 48/6/2
f 43/6/2 44/6/2 48/6/2
f 48/6/2 46/6/2 49/6/2
f 50/1/2 51/1/2 56/1/2
f 51/2/2 52/2/2 57/2/2
f 56/1/2 51/1/2 57/1/2
f 57/2/2 52/2/2 58/2/2
f 52/3/2 53/3/2 59/3/2
f 53/2/2 54/2/2 60/2/2
f 59/3/2 53/3/2 60/3/2
f 60/2/2 54/2/2 61/2/2
f 54/1/2 55/1/2 62/1/2
f 61/2/2 54/2/2 62/2/2
f 62/1/2 55/1/2 63/1/2
f 57/1/2 58/1/2 64/1/2
f 58/2/2 52/2/2 65/2/2
f 64/1/2 58/1/2 65/1/2
f 52/3/2 59/3/2 66/3/2
f 65/2/2 52/2/2 66/2/2
f 60/2/2 61/2/2 67/2/2
f 66/3/2 59/3/2 67/3/2
f 59/2/2 60/2/2 67/2/2
f 61/1/2 62/1/2 68/1/2
f 67/2/2 61/2/2 68/2/2
f 68/1/2 62/1/2 69/1/2
f 72/1/3 71/1/3 70/1/3
f 73/1/3 71/1/3 72/1/3
f 75/2/3 73/2/3 72/2/3
f 76/1/3 74/1/3 73/1/3
f 76/2/3 73/2/3 75/2/3
f 77/1/3 74/1/3 76/1/3
f 78/3/3 76/3/3 75/3/3
f 78/2/3 77/2/3 76/2/3
f 79/2/3 77/2/3 78/2/3
f 80/3/3 78/3/3 75/3/3
f 80/3/3 79/3/3 78/3/3
f 81/3/3 79/3/3 80/3/3
f 82/3/3 80/3/3 75/3/3
f 83/2/3 81/2/3 80/2/3
f 83/3/3 80/3/3 82/3/3
f 84/2/3 83/2/3 82/2/3
f 84/2/3 81/2/3 83/2/3
f 85/2/3 81/2/3 84/2/3
f 86/2/3 84/2/3 82/2/3
f 86/1/3 85/1/3 84/1/3
f 87/1/3 85/1/3 86/1/3
f 88/2/3 86/2/3 82/2/3
f 89/2/3 86/2/3 88/2/3
f 90/1/3 89/1/3 88/1/3
f 91/1/3 89/1/3 90/1/3
f 94/1/3 93/1/3 92/1/3
f 95/1/3 93/1/3 94/1/3
f 97/6/3 96/6/3 95/6/3
f 98/6/3 96/6/3 97/6/3
f 99/6/3 96/6/3 98/6/3
f 100/6/3 96/6/3 99/6/3
f 102/6/3 96/6/3 100/6/3
f 103/3/3 102/3/3 101/3/3
f 104/6/3 96/6/3 102/6/3
f 104/3/3 102/3/3 103/3/3
f 105/6/3 96/6/3 104/6/3
f 106/1/3 104/1/3 103/1/3
f 107/1/3 104/1/3 106/1/3
f 108/1/4 109/1/4 110/1/4
f 110/1/4 109/1/4 111/1/4
f 111/6/4 112/6/4 113/6/4
f 113/6/4 112/6/4 114/6/4
f 114/6/4 112/6/4 115/6/4
f 115/6/4 112/6/4 116/6/4
f 116/6/4 112/6/4 117/6/4
f 117/6/4 112/6/4 119/6/4
f 119/6/4 112/6/4 120/6/4
f 118/1/4 119/1/4 121/1/4
f 121/1/4 119/1/4 122/1/4
f 123/1/4 124/1/4 125/1/4
f 125/1/4 124/1/4 126/1/4
f 125/2/4 126/2/4 128/2/4
f 126/1/4 127/1/4 128/1/4
f 128/1/4 127/1/4 129/1/4
f 125/2/4 128/2/4 130/2/4
f 128/2/4 129/2/4 130/2/4
f 130/2/4 129/2/4 131/2/4
f 131/2/4 129/2/4 132/2/4
f 130/3/4 131/3/4 133/3/4
f 131/4/4 132/4/4 133/4/4
f 133/4/4 132/4/4 134/4/4
f 130/3/4 133/3/4 135/3/4
f 133/3/4 134/3/4 135/3/4
f 135/3/4 134/3/4 136/3/4
f 130/3/4 135/3/4 137/3/4
f 135/2/4 136/2/4 138/2/4
f 137/3/4 135/3/4 138/3/4
f 138/2/4 136/2/4 139/2/4
f 137/2/4 138/2/4 140/2/4
f 138/1/4 139/1/4 141/1/4
f 140/2/4 138/2/4 141/2/4
f 141/1/4 139/1/4 142/1/4
f 140/1/4 141/1/4 143/1/4
f 143/1/4 141/1/4 144/1/4
f 151/1/5 146/1/5 145/1/5
f 151/2/5 147/2/5 146/2/5
f 152/3/5 148/3/5 147/3/5
f 152/2/5 147/2/5 151/2/5
f 153/3/5 148/3/5 152/3/5
f 154/2/5 149/2/5 148/2/5
f 154/3/5 148/3/5 153/3/5
f 155/1/5 150/1/5 149/1/5
f 155/2/5 149/2/5 154/2/5
f 156/1/5 150/1/5 155/1/5
f 157/1/5 151/1/5 145/1/5
f 158/3/5 153/3/5 152/3/5
f 158/1/5 151/1/5 157/1/5
f 158/3/5 152/3/5 151/3/5
f 159/3/5 153/3/5 158/3/5
f 160/4/5 154/4/5 153/4/5
f 160/3/5 153/3/5 159/3/5
f 161/4/5 154/4/5 160/4/5
f 162/4/5 154/4/5 161/4/5
f 163/3/5 155/3/5 154/3/5
f 163/4/5 154/4/5 162/4/5
f 164/3/5 155/3/5 163/3/5
f 165/2/5 158/2/5 157/2/5
f 166/3/5 159/3/5 158/3/5
f 166/2/5 158/2/5 165/2/5
f 167/4/5 160/4/5 159/4/5
f 167/4/5 161/4/5 160/4/5
f 168/5/5 162/5/5 161/5/5
f 168/4/5 161/4/5 167/4/5
f 169/4/5 163/4/5 162/4/5
f 169/5/5 162/5/5 168/5/5
f 169/4/5 164/4/5 163/4/5
f 170/4/5 164/4/5 169/4/5
f 171/3/5 155/3/5 164/3/5
f 171/4/5 164/4/5 170/4/5
f 172/3/5 155/3/5 171/3/5
f 173/2/5 156/2/5 155/2/5
f 173/3/5 155/3/5 172/3/5
f 174/2/5 156/2/5 173/2/5
f 175/3/5 159/3/5 166/3/5
f 175/3/5 166/3/5 165/3/5
f 176/4/5 167/4/5 159/4/5
f 176/3/5 159/3/5 175/3/5
f 177/5/5 170/5/5 169/5/5
f 177/4/5 167/4/5 176/4/5
f 177/5/5 168/5/5 167/5/5
f 177/5/5 169/5/5 168/5/5
f 178/5/5 170/5/5 177/5/5
f 179/4/5 172/4/5 171/4/5
f 179/5/5 170/5/5 178/5/5
f 179/4/5 171/4/5 170/4/5
f 180/4/5 172/4/5 179/4/5
f 181/5/5 179/5/5 178/5/5
f 181/5/5 180/5/5 179/5/5
f 182/4/5 172/4/5 180/4/5
f 182/5/5 180/5/5 181/5/5
f 183/3/5 174/3/5 173/3/5
f 183/3/5 173/3/5 172/3/5
f 184/3/5 174/3/5 183/3/5
f 185/3/5 175/3/5 165/3/5
f 186/4/5 178/4/5 177/4/5
f 186/3/5 175/3/5 185/3/5
f 186/4/5 176/4/5 175/4/5
f 186/4/5 177/4/5 176/4/5
f 187/4/5 178/4/5 186/4/5
f 188/5/5 181/5/5 178/5/5
f 188/4/5 178/4/5 187/4/5
f 189/4/5 182/4/5 181/4/5
f 189/5/5 181/5/5 188/5/5
f 190/4/5 172/4/5 182/4/5
f 190/4/5 182/4/5 189/4/5
f 191/3/5 183/3/5 172/3/5
f 191/4/5 172/4/5 190/4/5
f 192/2/5 186/2/5 185/2/5
f 193/3/5 187/3/5 186/3/5
f 193/2/5 186/2/5 192/2/5
f 194/4/5 189/4/5 188/4/5
f 194/3/5 187/3/5 193/3/5
f 194/4/5 188/4/5 187/4/5
f 194/4/5 190/4/5 189/4/5
f 195/3/5 191/3/5 190/3/5
f 195/4/5 190/4/5 194/4/5
f 196/3/5 183/3/5 191/3/5
f 196/3/5 191/3/5 195/3/5
f 197/2/5 184/2/5 183/2/5
f 197/3/5 183/3/5 196/3/5
f 198/2/5 184/2/5 197/2/5
f 199/1/5 193/1/5 192/1/5
f 200/2/5 194/2/5 193/2/5
f 200/1/5 193/1/5 199/1/5
f 201/3/5 196/3/5 195/3/5
f 201/2/5 194/2/5 200/2/5
f 201/3/5 195/3/5 194/3/5
f 202/2/5 197/2/5 196/2/5
f 202/3/5 196/3/5 201/3/5
f 203/1/5 198/1/5 197/1/5
f 203/2/5 197/2/5 202/2/5
f 204/1/5 198/1/5 203/1/5
f 205/1/6 206/1/6 210/1/6
f 210/1/6 206/1/6 211/1/6
f 207/2/6 208/2/6 212/2/6
f 208/1/6 209/1/6 213/1/6
f 212/2/6 208/2/6 213/2/6
f 213/1/6 209/1/6 214/1/6
f 215/1/6 216/1/6 219/1/6
f 219/1/6 216/1/6 220/1/6
f 217/1/6 218/1/6 221/1/6
f 221/1/6 218/1/6 222/1/6
f 223/1/6 224/1/6 230/1/6
f 224/2/6 225/2/6 231/2/6
f 230/1/6 224/1/6 231/1/6
f 225/3/6 226/3/6 232/3/6
f 231/2/6 225/2/6 232/2/6
f 226/2/6 227/2/6 233/2/6
f 232/3/6 226/3/6 233/3/6
f 227/1/6 228/1/6 234/1/6
f 233/2/6 227/2/6 234/2/6
f 234/1/6 228/1/6 235/1/6
f 229/1/6 230/1/6 238/1/6
f 238/1/6 230/1/6 239/1/6
f 236/1/6 237/1/6 240/1/6
f 240/1/6 237/1/6 241/1/6
f 240/2/6 241/2/6 242/2/6
f 242/2/6 241/2/6 243/2/6
f 238/2/6 239/2/6 244/2/6
f 244/2/6 239/2/6 245/2/6
f 242/3/6 243/3/6 246/3/6
f 246/3/6 243/3/6 247/3/6
f 244/3/6 245/3/6 248/3/6
f 248/3/6 245/3/6 249/3/6
f 248/2/6 249/2/6 250/2/6
f 250/2/6 249/2/6 251/2/6
f 246/2/6 247/2/6 252/2/6
f 252/2/6 247/2/6 253/2/6
f 250/1/6 251/1/6 254/1/6
f 254/1/6 251/1/6 255/1/6
f 252/1/6 253/1/6 261/1/6
f 261/1/6 253/1/6 262/1/6
f 255/1/6 256/1/6 263/1/6
f 256/2/6 257/2/6 264/2/6
f 263/1/6 256/1/6 264/1/6
f 257/4/6 258/4/6 265/4/6
f 264/2/6 257/2/6 265/2/6
f 258/3/6 259/3/6 266/3/6
f 265/4/6 258/4/6 266/4/6
f 259/2/6 260/2/6 267/2/6
f 266/3/6 259/3/6 267/3/6
f 260/1/6 261/1/6 268/1/6
f 267/2/6 260/2/6 268/2/6
f 268/1/6 261/1/6 269/1/6
f 270/6/6 271/6/6 272/6/6
f 272/6/6 271/6/6 273/6/6
